<mxfile host="app.diagrams.net" modified="2020-09-08T12:53:41.704Z" agent="5.0 (Windows NT 10.0; Win64; x64) AppleWebKit/537.36 (KHTML, like Gecko) Chrome/85.0.4183.83 Safari/537.36" etag="ShjG7n86kBmKMJ1km8ZX" version="13.6.6" type="github">
  <diagram id="2i50KsK24GxQg3cfIlHp" name="Page-1">
    <mxGraphModel dx="1038" dy="568" grid="1" gridSize="10" guides="1" tooltips="1" connect="1" arrows="1" fold="1" page="1" pageScale="1" pageWidth="850" pageHeight="1100" background="#DAD2D8" math="0" shadow="0">
      <root>
        <mxCell id="0" />
        <mxCell id="1" parent="0" />
        <mxCell id="MK76ywJr2P-t2xvG0aXb-1" value="CDN Origin&lt;br&gt;server" style="rounded=0;whiteSpace=wrap;html=1;fillColor=#FAE5C7;strokeColor=#0F8B8D;fontColor=#143642;" parent="1" vertex="1">
          <mxGeometry x="365" y="80" width="120" height="60" as="geometry" />
        </mxCell>
        <mxCell id="MK76ywJr2P-t2xvG0aXb-2" value="Amsterdam server" style="rounded=1;whiteSpace=wrap;html=1;fillColor=#FAE5C7;strokeColor=#0F8B8D;fontColor=#143642;" parent="1" vertex="1">
          <mxGeometry x="160" y="200" width="120" height="60" as="geometry" />
        </mxCell>
        <mxCell id="MK76ywJr2P-t2xvG0aXb-3" value="Sydney Server" style="rounded=1;whiteSpace=wrap;html=1;fillColor=#FAE5C7;strokeColor=#0F8B8D;fontColor=#143642;" parent="1" vertex="1">
          <mxGeometry x="590" y="200" width="120" height="60" as="geometry" />
        </mxCell>
        <mxCell id="MK76ywJr2P-t2xvG0aXb-22" style="edgeStyle=orthogonalEdgeStyle;rounded=0;orthogonalLoop=1;jettySize=auto;html=1;entryX=0.5;entryY=0;entryDx=0;entryDy=0;labelBackgroundColor=#DAD2D8;strokeColor=#A8201A;fontColor=#143642;" parent="1" source="MK76ywJr2P-t2xvG0aXb-4" target="MK76ywJr2P-t2xvG0aXb-17" edge="1">
          <mxGeometry relative="1" as="geometry" />
        </mxCell>
        <mxCell id="MK76ywJr2P-t2xvG0aXb-4" value="European Server" style="rounded=1;whiteSpace=wrap;html=1;fillColor=#FAE5C7;strokeColor=#0F8B8D;fontColor=#143642;" parent="1" vertex="1">
          <mxGeometry x="373" y="198" width="120" height="60" as="geometry" />
        </mxCell>
        <mxCell id="MK76ywJr2P-t2xvG0aXb-5" value="Client" style="rounded=0;whiteSpace=wrap;html=1;fillColor=#FAE5C7;strokeColor=#0F8B8D;fontColor=#143642;" parent="1" vertex="1">
          <mxGeometry x="40" y="380" width="120" height="60" as="geometry" />
        </mxCell>
        <mxCell id="MK76ywJr2P-t2xvG0aXb-23" style="edgeStyle=orthogonalEdgeStyle;rounded=0;orthogonalLoop=1;jettySize=auto;html=1;exitX=0.5;exitY=1;exitDx=0;exitDy=0;entryX=0.25;entryY=0;entryDx=0;entryDy=0;labelBackgroundColor=#DAD2D8;strokeColor=#A8201A;fontColor=#143642;" parent="1" source="MK76ywJr2P-t2xvG0aXb-6" target="MK76ywJr2P-t2xvG0aXb-17" edge="1">
          <mxGeometry relative="1" as="geometry" />
        </mxCell>
        <mxCell id="MK76ywJr2P-t2xvG0aXb-6" value="" style="rounded=0;whiteSpace=wrap;html=1;fillColor=#FAE5C7;strokeColor=#0F8B8D;fontColor=#143642;" parent="1" vertex="1">
          <mxGeometry x="280" y="380" width="120" height="60" as="geometry" />
        </mxCell>
        <mxCell id="MK76ywJr2P-t2xvG0aXb-24" style="edgeStyle=orthogonalEdgeStyle;rounded=0;orthogonalLoop=1;jettySize=auto;html=1;entryX=0.75;entryY=0;entryDx=0;entryDy=0;labelBackgroundColor=#DAD2D8;strokeColor=#A8201A;fontColor=#143642;" parent="1" source="MK76ywJr2P-t2xvG0aXb-7" target="MK76ywJr2P-t2xvG0aXb-17" edge="1">
          <mxGeometry relative="1" as="geometry" />
        </mxCell>
        <mxCell id="MK76ywJr2P-t2xvG0aXb-7" value="" style="rounded=0;whiteSpace=wrap;html=1;fillColor=#FAE5C7;strokeColor=#0F8B8D;fontColor=#143642;" parent="1" vertex="1">
          <mxGeometry x="470" y="379" width="120" height="60" as="geometry" />
        </mxCell>
        <mxCell id="MK76ywJr2P-t2xvG0aXb-8" value="" style="rounded=0;whiteSpace=wrap;html=1;fillColor=#FAE5C7;strokeColor=#0F8B8D;fontColor=#143642;" parent="1" vertex="1">
          <mxGeometry x="690" y="369" width="120" height="60" as="geometry" />
        </mxCell>
        <mxCell id="MK76ywJr2P-t2xvG0aXb-9" value="" style="endArrow=none;html=1;entryX=0.5;entryY=1;entryDx=0;entryDy=0;labelBackgroundColor=#DAD2D8;strokeColor=#A8201A;fontColor=#143642;" parent="1" target="MK76ywJr2P-t2xvG0aXb-1" edge="1">
          <mxGeometry width="50" height="50" relative="1" as="geometry">
            <mxPoint x="210" y="200" as="sourcePoint" />
            <mxPoint x="350" y="140" as="targetPoint" />
          </mxGeometry>
        </mxCell>
        <mxCell id="MK76ywJr2P-t2xvG0aXb-10" value="" style="endArrow=none;html=1;exitX=0.5;exitY=0;exitDx=0;exitDy=0;entryX=0.5;entryY=1;entryDx=0;entryDy=0;labelBackgroundColor=#DAD2D8;strokeColor=#A8201A;fontColor=#143642;" parent="1" source="MK76ywJr2P-t2xvG0aXb-5" edge="1">
          <mxGeometry width="50" height="50" relative="1" as="geometry">
            <mxPoint x="70" y="319.82000000000005" as="sourcePoint" />
            <mxPoint x="224.24" y="260" as="targetPoint" />
          </mxGeometry>
        </mxCell>
        <mxCell id="MK76ywJr2P-t2xvG0aXb-11" value="" style="endArrow=none;html=1;exitX=0.5;exitY=0;exitDx=0;exitDy=0;entryX=0.5;entryY=1;entryDx=0;entryDy=0;labelBackgroundColor=#DAD2D8;strokeColor=#A8201A;fontColor=#143642;" parent="1" source="MK76ywJr2P-t2xvG0aXb-6" target="MK76ywJr2P-t2xvG0aXb-2" edge="1">
          <mxGeometry width="50" height="50" relative="1" as="geometry">
            <mxPoint x="100" y="390" as="sourcePoint" />
            <mxPoint x="224.24" y="270" as="targetPoint" />
          </mxGeometry>
        </mxCell>
        <mxCell id="MK76ywJr2P-t2xvG0aXb-12" value="" style="endArrow=none;html=1;labelBackgroundColor=#DAD2D8;strokeColor=#A8201A;fontColor=#143642;" parent="1" edge="1">
          <mxGeometry width="50" height="50" relative="1" as="geometry">
            <mxPoint x="640" y="200" as="sourcePoint" />
            <mxPoint x="430" y="140" as="targetPoint" />
          </mxGeometry>
        </mxCell>
        <mxCell id="MK76ywJr2P-t2xvG0aXb-13" value="" style="endArrow=none;html=1;exitX=0.417;exitY=-0.07;exitDx=0;exitDy=0;exitPerimeter=0;labelBackgroundColor=#DAD2D8;strokeColor=#A8201A;fontColor=#143642;" parent="1" edge="1">
          <mxGeometry width="50" height="50" relative="1" as="geometry">
            <mxPoint x="427.03999999999996" y="196.79999999999995" as="sourcePoint" />
            <mxPoint x="427" y="141" as="targetPoint" />
          </mxGeometry>
        </mxCell>
        <mxCell id="MK76ywJr2P-t2xvG0aXb-15" value="" style="endArrow=none;html=1;exitX=0.5;exitY=0;exitDx=0;exitDy=0;entryX=0.5;entryY=0;entryDx=0;entryDy=0;labelBackgroundColor=#DAD2D8;strokeColor=#A8201A;fontColor=#143642;" parent="1" edge="1">
          <mxGeometry width="50" height="50" relative="1" as="geometry">
            <mxPoint x="750" y="368" as="sourcePoint" />
            <mxPoint x="530" y="378" as="targetPoint" />
            <Array as="points">
              <mxPoint x="650" y="258" />
            </Array>
          </mxGeometry>
        </mxCell>
        <mxCell id="MK76ywJr2P-t2xvG0aXb-16" value="" style="rounded=1;whiteSpace=wrap;html=1;fillColor=#FAE5C7;strokeColor=#0F8B8D;fontColor=#143642;" parent="1" vertex="1">
          <mxGeometry x="330" y="300" width="70" height="20" as="geometry" />
        </mxCell>
        <mxCell id="MK76ywJr2P-t2xvG0aXb-17" value="" style="rounded=1;whiteSpace=wrap;html=1;fillColor=#FAE5C7;strokeColor=#0F8B8D;fontColor=#143642;" parent="1" vertex="1">
          <mxGeometry x="410" y="500" width="70" height="20" as="geometry" />
        </mxCell>
        <mxCell id="MK76ywJr2P-t2xvG0aXb-18" value="" style="rounded=1;whiteSpace=wrap;html=1;fillColor=#FAE5C7;strokeColor=#0F8B8D;fontColor=#143642;" parent="1" vertex="1">
          <mxGeometry x="410" y="300" width="70" height="20" as="geometry" />
        </mxCell>
        <mxCell id="MK76ywJr2P-t2xvG0aXb-19" value="" style="rounded=1;whiteSpace=wrap;html=1;fillColor=#FAE5C7;strokeColor=#0F8B8D;fontColor=#143642;" parent="1" vertex="1">
          <mxGeometry x="500" y="300" width="70" height="20" as="geometry" />
        </mxCell>
        <mxCell id="MK76ywJr2P-t2xvG0aXb-20" value="" style="endArrow=none;html=1;labelBackgroundColor=#DAD2D8;strokeColor=#A8201A;fontColor=#143642;" parent="1" edge="1">
          <mxGeometry width="50" height="50" relative="1" as="geometry">
            <mxPoint x="400" y="320" as="sourcePoint" />
            <mxPoint x="400" y="260" as="targetPoint" />
          </mxGeometry>
        </mxCell>
        <mxCell id="MK76ywJr2P-t2xvG0aXb-21" value="" style="endArrow=none;html=1;exitX=0.5;exitY=0;exitDx=0;exitDy=0;entryX=0.411;entryY=-0.09;entryDx=0;entryDy=0;entryPerimeter=0;labelBackgroundColor=#DAD2D8;strokeColor=#A8201A;fontColor=#143642;" parent="1" source="MK76ywJr2P-t2xvG0aXb-19" target="MK76ywJr2P-t2xvG0aXb-16" edge="1">
          <mxGeometry width="50" height="50" relative="1" as="geometry">
            <mxPoint x="530" y="360" as="sourcePoint" />
            <mxPoint x="310" y="370" as="targetPoint" />
            <Array as="points">
              <mxPoint x="430" y="260" />
            </Array>
          </mxGeometry>
        </mxCell>
        <mxCell id="MK76ywJr2P-t2xvG0aXb-28" style="edgeStyle=orthogonalEdgeStyle;rounded=0;orthogonalLoop=1;jettySize=auto;html=1;entryX=0;entryY=0;entryDx=0;entryDy=0;labelBackgroundColor=#DAD2D8;strokeColor=#A8201A;fontColor=#143642;" parent="1" source="MK76ywJr2P-t2xvG0aXb-25" target="MK76ywJr2P-t2xvG0aXb-4" edge="1">
          <mxGeometry relative="1" as="geometry" />
        </mxCell>
        <mxCell id="MK76ywJr2P-t2xvG0aXb-29" style="edgeStyle=orthogonalEdgeStyle;rounded=0;orthogonalLoop=1;jettySize=auto;html=1;entryX=0.75;entryY=0;entryDx=0;entryDy=0;labelBackgroundColor=#DAD2D8;strokeColor=#A8201A;fontColor=#143642;" parent="1" source="MK76ywJr2P-t2xvG0aXb-25" target="MK76ywJr2P-t2xvG0aXb-3" edge="1">
          <mxGeometry relative="1" as="geometry" />
        </mxCell>
        <mxCell id="MK76ywJr2P-t2xvG0aXb-25" value="CDN Node" style="shape=callout;whiteSpace=wrap;html=1;perimeter=calloutPerimeter;position2=1;fillColor=#FAE5C7;strokeColor=#0F8B8D;fontColor=#143642;" parent="1" vertex="1">
          <mxGeometry x="80" y="148" width="90" height="50" as="geometry" />
        </mxCell>
        <mxCell id="MK76ywJr2P-t2xvG0aXb-30" value="Distribution to CDN Nodes&amp;nbsp;" style="shape=callout;whiteSpace=wrap;html=1;perimeter=calloutPerimeter;position2=0;fillColor=#FAE5C7;strokeColor=#0F8B8D;fontColor=#143642;" parent="1" vertex="1">
          <mxGeometry x="532" y="89" width="110" height="80" as="geometry" />
        </mxCell>
        <mxCell id="MK76ywJr2P-t2xvG0aXb-31" value="Page fetch" style="shape=callout;whiteSpace=wrap;html=1;perimeter=calloutPerimeter;position2=1;fillColor=#FAE5C7;strokeColor=#0F8B8D;fontColor=#143642;" parent="1" vertex="1">
          <mxGeometry x="10" y="275" width="120" height="70" as="geometry" />
        </mxCell>
        <mxCell id="MK76ywJr2P-t2xvG0aXb-33" style="edgeStyle=orthogonalEdgeStyle;rounded=0;orthogonalLoop=1;jettySize=auto;html=1;entryX=0.5;entryY=1;entryDx=0;entryDy=0;labelBackgroundColor=#DAD2D8;strokeColor=#A8201A;fontColor=#143642;" parent="1" source="MK76ywJr2P-t2xvG0aXb-32" target="MK76ywJr2P-t2xvG0aXb-5" edge="1">
          <mxGeometry relative="1" as="geometry" />
        </mxCell>
        <mxCell id="MK76ywJr2P-t2xvG0aXb-34" style="edgeStyle=orthogonalEdgeStyle;rounded=0;orthogonalLoop=1;jettySize=auto;html=1;labelBackgroundColor=#DAD2D8;strokeColor=#A8201A;fontColor=#143642;" parent="1" source="MK76ywJr2P-t2xvG0aXb-32" edge="1">
          <mxGeometry relative="1" as="geometry">
            <mxPoint x="320" y="450" as="targetPoint" />
          </mxGeometry>
        </mxCell>
        <mxCell id="MK76ywJr2P-t2xvG0aXb-35" style="edgeStyle=orthogonalEdgeStyle;rounded=0;orthogonalLoop=1;jettySize=auto;html=1;labelBackgroundColor=#DAD2D8;strokeColor=#A8201A;fontColor=#143642;" parent="1" source="MK76ywJr2P-t2xvG0aXb-32" edge="1">
          <mxGeometry relative="1" as="geometry">
            <mxPoint x="570" y="440" as="targetPoint" />
          </mxGeometry>
        </mxCell>
        <mxCell id="MK76ywJr2P-t2xvG0aXb-36" style="edgeStyle=orthogonalEdgeStyle;rounded=0;orthogonalLoop=1;jettySize=auto;html=1;labelBackgroundColor=#DAD2D8;strokeColor=#A8201A;fontColor=#143642;" parent="1" source="MK76ywJr2P-t2xvG0aXb-32" edge="1">
          <mxGeometry relative="1" as="geometry">
            <mxPoint x="780" y="440" as="targetPoint" />
          </mxGeometry>
        </mxCell>
        <mxCell id="MK76ywJr2P-t2xvG0aXb-37" style="edgeStyle=orthogonalEdgeStyle;rounded=0;orthogonalLoop=1;jettySize=auto;html=1;entryX=0.5;entryY=1;entryDx=0;entryDy=0;labelBackgroundColor=#DAD2D8;strokeColor=#A8201A;fontColor=#143642;" parent="1" source="MK76ywJr2P-t2xvG0aXb-32" target="MK76ywJr2P-t2xvG0aXb-17" edge="1">
          <mxGeometry relative="1" as="geometry" />
        </mxCell>
        <mxCell id="MK76ywJr2P-t2xvG0aXb-32" value="" style="shape=callout;whiteSpace=wrap;html=1;perimeter=calloutPerimeter;rotation=-180;fillColor=#FAE5C7;strokeColor=#0F8B8D;fontColor=#143642;" parent="1" vertex="1">
          <mxGeometry x="400" y="680" width="120" height="50" as="geometry" />
        </mxCell>
        <mxCell id="MK76ywJr2P-t2xvG0aXb-38" value="&lt;font style=&quot;font-size: 24px&quot;&gt;World wide Client&lt;/font&gt;" style="text;html=1;strokeColor=none;fillColor=none;align=center;verticalAlign=middle;whiteSpace=wrap;rounded=0;fontColor=#143642;" parent="1" vertex="1">
          <mxGeometry x="355" y="730" width="210" height="60" as="geometry" />
        </mxCell>
        <mxCell id="MK76ywJr2P-t2xvG0aXb-39" value="&lt;font style=&quot;font-size: 24px&quot;&gt;CDN:- Content Delivery Network:-&lt;/font&gt;&lt;font size=&quot;3&quot;&gt;&amp;nbsp;When you create a web page you need to have running server to serve content to client ie- file,images, videos etc..there you need to have to come up with HTML ,CSS&amp;amp; JS this process is known as CDN&amp;nbsp;&lt;/font&gt;" style="text;html=1;strokeColor=none;fillColor=none;align=center;verticalAlign=middle;whiteSpace=wrap;rounded=0;fontColor=#143642;" parent="1" vertex="1">
          <mxGeometry x="45" y="810" width="760" height="60" as="geometry" />
        </mxCell>
      </root>
    </mxGraphModel>
  </diagram>
</mxfile>
